# xmcd CD database file
#
# Track frame offsets:
#	150
#	16500
#	39913
#	64842
#	85513
#	90038
#	107491
#	130253
#	144595
#	169838
#	186666
#	208750
#	233435
#
# Disc length: 3328 seconds
#
# Revision: 0
# Processed by: cddbd v1.5.2PL0 Copyright (c) Steve Scherf et al.
# Submitted via: CDex 1.70beta2
#
DISCID=990cfe0d
DTITLE=Paul Kuhn Big Band - my private collection - live at the philharmonie cologne
DYEAR=2004
DGENRE=Jazz
TTITLE0=Woodchopper's Ball
TTITLE1=My Private Collection - a Summer Wind - b The Lady Is A Tramp - c I Get A Kick Out Of You
TTITLE2=Quintessence
TTITLE3=Georgia On My Mind
TTITLE4=Way Down Yonder In New Orleans (New Orleans Version)
TTITLE5=Way Down Yonder In New Orleans (Swing Version)
TTITLE6=Angel Eyes
TTITLE7=I'm Gonna Sit Right Down And Write Myself A Letter
TTITLE8=On A Slow Boat To China
TTITLE9=Long Ago And Far Away
TTITLE10=Anvil Chorus
TTITLE11=Pink Panther
TTITLE12=Glory Glory Hallelujah
EXTD=YEAR: 2004
EXTT0=
EXTT1=
EXTT2=
EXTT3=
EXTT4=
EXTT5=
EXTT6=
EXTT7=
EXTT8=
EXTT9=
EXTT10=
EXTT11=
EXTT12=
PLAYORDER=
